<svg width="60" height="62" viewBox="0 0 60 62" fill="none" xmlns="http://www.w3.org/2000/svg">
<g opacity="0.7" filter="url(#filter0_b)">
<rect width="59.8886" height="57.2243" rx="10" transform="matrix(0.00157928 -0.999999 0.999998 0.0018607 1 60.8884)" fill="url(#paint0_radial)"/>
<rect x="-0.500789" y="0.499069" width="60.8886" height="58.2243" rx="10.5" transform="matrix(0.00157928 -0.999999 0.999998 0.0018607 0.000933949 60.8858)" stroke="url(#paint1_linear)"/>
</g>
<path d="M21.5271 19.3104C23.651 17.201 26.528 16.011 29.5309 16C32.4278 16.0495 35.1961 17.2001 37.2651 19.215C39.3342 21.2299 40.5485 23.9558 40.6563 26.8313C40.7599 29.7213 39.7518 32.5379 37.8476 34.6789C35.9358 36.8415 33.2628 38.1948 30.3776 38.4591C30.3776 38.4591 28.9332 38.5582 28.5926 38.6077C27.7831 38.7292 27.0282 39.0969 26.4265 39.6629C25.8333 40.2208 25.4247 40.9531 25.2571 41.7585C25.2571 41.7585 24.8086 43.9348 24.7592 44.1321C24.7214 44.333 24.6423 44.5239 24.5282 44.6927C24.4133 44.8632 24.2656 45.008 24.0941 45.1184C23.9208 45.2303 23.7274 45.3057 23.5252 45.3402C23.323 45.3747 23.1161 45.3676 22.9166 45.3194C22.7157 45.282 22.5241 45.2041 22.3531 45.09C22.1835 44.9774 22.0383 44.8307 21.9262 44.6588C21.8157 44.4885 21.7411 44.2967 21.7071 44.0955C21.673 43.8943 21.6803 43.688 21.7284 43.4898C21.7284 43.3412 25.285 26.9368 25.285 26.9368C25.3713 26.5359 25.6131 26.1863 25.9591 25.9643C26.3067 25.7412 26.7255 25.6643 27.1275 25.7496C27.5302 25.8349 27.8825 26.0753 28.1063 26.4194C28.331 26.7616 28.4074 27.1791 28.322 27.5791L26.8282 34.2981L26.5793 35.6331C26.564 35.6534 26.5566 35.6788 26.5584 35.7043C26.5603 35.7298 26.5712 35.7538 26.5892 35.7717C26.6075 35.7898 26.6316 35.8007 26.6572 35.8024C26.6827 35.804 26.708 35.7964 26.7285 35.7808C27.0152 35.7093 27.3037 35.6524 27.5967 35.612C28.3931 35.5129 29.9785 35.4147 29.9785 35.4147C31.556 35.3217 33.0749 34.7721 34.3575 33.8302C35.6242 32.9012 36.5966 31.6139 37.1546 30.1271C37.7054 28.6527 37.8121 27.044 37.4611 25.5074C37.1053 23.9624 36.3112 22.5588 35.1781 21.4721C34.0297 20.3701 32.5963 19.6267 31.0472 19.3297C29.4909 19.0288 27.883 19.1837 26.4094 19.7765C24.9485 20.3617 23.6845 21.3654 22.7692 22.6667C21.8665 23.9522 21.3585 25.4826 21.3096 27.0635C21.2639 28.0401 21.4138 29.0161 21.75 29.9316C21.8731 30.3216 21.8417 30.7436 21.6619 31.1116C21.4822 31.4786 21.1676 31.7648 20.7829 31.9098C20.3874 32.0291 19.9596 31.9924 19.5893 31.8089C19.219 31.6254 18.9332 31.307 18.792 30.9207C18.3965 29.743 18.1945 28.5066 18.1943 27.2617C18.2051 24.2779 19.4032 21.4198 21.5271 19.3104Z" fill="white"/>
<defs>
<filter id="filter0_b" x="-41.9841" y="-41.9814" width="143.287" height="145.958" filterUnits="userSpaceOnUse" color-interpolation-filters="sRGB">
<feFlood flood-opacity="0" result="BackgroundImageFix"/>
<feGaussianBlur in="BackgroundImage" stdDeviation="21"/>
<feComposite in2="SourceAlpha" operator="in" result="effect1_backgroundBlur"/>
<feBlend mode="normal" in="SourceGraphic" in2="effect1_backgroundBlur" result="shape"/>
</filter>
<radialGradient id="paint0_radial" cx="0" cy="0" r="1" gradientUnits="userSpaceOnUse" gradientTransform="translate(1.16856 2.05187) rotate(43.2159) scale(80.5732 148.642)">
<stop stop-color="#DFB8F4"/>
<stop offset="1" stop-color="#1670F7"/>
</radialGradient>
<linearGradient id="paint1_linear" x1="29.9443" y1="-1.57994e-08" x2="29.4377" y2="61.6275" gradientUnits="userSpaceOnUse">
<stop stop-color="#E6D5F0"/>
<stop offset="1" stop-color="#1456B9" stop-opacity="0.59"/>
</linearGradient>
</defs>
</svg>
