<svg width="93" height="85" viewBox="0 0 93 85" fill="none" xmlns="http://www.w3.org/2000/svg">
<g opacity="0.7" filter="url(#filter0_b)">
<rect y="84.4849" width="84.485" height="92" rx="28" transform="rotate(-89.9018 0 84.4849)" fill="url(#paint0_radial)"/>
</g>
<path d="M31.7847 24.5246C35.4711 21.0043 40.4648 19.0184 45.677 19C50.7051 19.0827 55.51 21.0028 59.1013 24.3653C62.6925 27.7278 64.8002 32.277 64.9874 37.0758C65.1673 41.8986 63.4175 46.5991 60.1122 50.1721C56.794 53.7811 52.1544 56.0396 47.1466 56.4806C47.1466 56.4806 44.6396 56.646 44.0483 56.7286C42.6432 56.9314 41.333 57.545 40.2886 58.4895C39.259 59.4206 38.5497 60.6427 38.2589 61.9868C38.2589 61.9868 37.4805 65.6188 37.3947 65.948C37.3291 66.2833 37.1918 66.6018 36.9937 66.8835C36.7942 67.168 36.5378 67.4098 36.2402 67.594C35.9395 67.7807 35.6038 67.9065 35.2529 67.9641C34.9019 68.0217 34.5428 68.0099 34.1965 67.9293C33.8477 67.867 33.5152 67.7369 33.2184 67.5465C32.9241 67.3586 32.6719 67.1137 32.4774 66.8269C32.2856 66.5428 32.1561 66.2227 32.0971 65.8869C32.038 65.5511 32.0506 65.2069 32.1341 64.8761C32.1341 64.6281 38.3073 37.2518 38.3073 37.2518C38.4571 36.5827 38.8767 35.9993 39.4773 35.6288C40.0807 35.2565 40.8076 35.1281 41.5054 35.2705C42.2043 35.4129 42.8159 35.8141 43.2043 36.3883C43.5943 36.9594 43.7269 37.6561 43.5787 38.3237L40.9859 49.5366L40.5538 51.7645C40.5273 51.7984 40.5144 51.8407 40.5176 51.8833C40.5208 51.9259 40.5397 51.9659 40.5709 51.9957C40.6028 52.026 40.6447 52.0442 40.689 52.047C40.7333 52.0498 40.7771 52.037 40.8127 52.011C41.3104 51.8916 41.8112 51.7967 42.3198 51.7293C43.702 51.5639 46.4539 51.4001 46.4539 51.4001C49.1919 51.2449 51.8282 50.3276 54.0545 48.7557C56.2531 47.2055 57.9409 45.057 58.9094 42.5758C59.8654 40.1154 60.0507 37.4307 59.4414 34.8662C58.8239 32.2879 57.4456 29.9455 55.4788 28.132C53.4855 26.2931 50.9975 25.0524 48.3088 24.5567C45.6076 24.0545 42.8167 24.313 40.2589 25.3024C37.7233 26.279 35.5293 27.954 33.9407 30.1257C32.3739 32.271 31.492 34.8249 31.4072 37.4632C31.3279 39.0931 31.588 40.7217 32.1716 42.2497C32.3853 42.9004 32.3307 43.6048 32.0187 44.2188C31.7067 44.8313 31.1607 45.309 30.493 45.5509C29.8065 45.75 29.064 45.6887 28.4212 45.3825C27.7785 45.0763 27.2824 44.5449 27.0374 43.9003C26.3509 41.9349 26.0004 39.8716 26 37.7939C26.0187 32.8144 28.0983 28.0448 31.7847 24.5246Z" fill="white"/>
<path d="M22.7324 61.5254C23.4746 60.5163 24.0703 59.8099 24.5195 59.4062C24.9753 58.9961 25.418 58.791 25.8477 58.791C26.362 58.791 26.7168 58.9668 26.9121 59.3184C27.0163 59.5007 27.0684 59.722 27.0684 59.9824C27.0684 60.2493 26.9609 60.4935 26.7461 60.7148C26.5312 60.9362 26.2708 61.0469 25.9648 61.0469C25.776 61.0469 25.5612 60.9753 25.3203 60.832C25.0859 60.6888 24.9069 60.6172 24.7832 60.6172C24.5423 60.6172 24.3112 60.7409 24.0898 60.9883C23.875 61.2357 23.5007 61.7598 22.9668 62.5605L23.1523 63.5371C23.25 64.0384 23.3314 64.4518 23.3965 64.7773C23.4616 65.0964 23.5332 65.3926 23.6113 65.666C23.7155 66.0436 23.8197 66.3171 23.9238 66.4863C24.028 66.6556 24.181 66.7402 24.3828 66.7402C24.5651 66.7402 24.7865 66.6068 25.0469 66.3398C25.1901 66.1966 25.4082 65.9329 25.7012 65.5488L26.1113 65.832C25.7663 66.4115 25.3171 66.9616 24.7637 67.4824C24.2168 68.0033 23.6797 68.2637 23.1523 68.2637C22.7096 68.2637 22.3451 68.0814 22.0586 67.7168C21.8958 67.5215 21.7526 67.2546 21.6289 66.916C21.5638 66.7402 21.4727 66.431 21.3555 65.9883C21.2448 65.5391 21.1732 65.2624 21.1406 65.1582L21.0039 65.3926C20.3594 66.4993 19.8874 67.2188 19.5879 67.5508C19.1387 68.0456 18.6178 68.293 18.0254 68.293C17.6868 68.293 17.3906 68.179 17.1367 67.9512C16.8893 67.7168 16.7656 67.4303 16.7656 67.0918C16.7656 66.8118 16.8568 66.5547 17.0391 66.3203C17.2279 66.0794 17.4883 65.959 17.8203 65.959C18.0221 65.959 18.2695 66.0306 18.5625 66.1738C18.862 66.3171 19.0573 66.3887 19.1484 66.3887C19.3503 66.3887 19.5228 66.3008 19.666 66.125C19.8158 65.9427 20.1055 65.4967 20.5352 64.7871L20.9258 64.1426C20.8607 63.8691 20.7891 63.5339 20.7109 63.1367C20.6393 62.7396 20.5645 62.3327 20.4863 61.916L20.3301 61.0859C20.2194 60.487 20.0436 60.0931 19.8027 59.9043C19.666 59.7936 19.4414 59.7383 19.1289 59.7383C19.0964 59.7383 19.0182 59.7448 18.8945 59.7578C18.7708 59.7643 18.6471 59.7741 18.5234 59.7871V59.25C19.1094 59.1784 19.7507 59.0872 20.4473 58.9766C21.1504 58.8659 21.6191 58.7878 21.8535 58.7422C22.0488 59.0026 22.2083 59.3184 22.332 59.6895C22.4622 60.0605 22.5599 60.4544 22.625 60.8711L22.7324 61.5254Z" fill="#FFEDED"/>
<defs>
<filter id="filter0_b" x="-42" y="-42" width="176.145" height="168.643" filterUnits="userSpaceOnUse" color-interpolation-filters="sRGB">
<feFlood flood-opacity="0" result="BackgroundImageFix"/>
<feGaussianBlur in="BackgroundImage" stdDeviation="21"/>
<feComposite in2="SourceAlpha" operator="in" result="effect1_backgroundBlur"/>
<feBlend mode="normal" in="SourceGraphic" in2="effect1_backgroundBlur" result="shape"/>
</filter>
<radialGradient id="paint0_radial" cx="0" cy="0" r="1" gradientUnits="userSpaceOnUse" gradientTransform="translate(1.64849 87.7837) rotate(46.9581) scale(121.366 223.808)">
<stop stop-color="#4D186A"/>
<stop offset="1" stop-color="#00388B"/>
</radialGradient>
</defs>
</svg>
